<?plantuml 1.2026.0?><svg xmlns="http://www.w3.org/2000/svg" xmlns:xlink="http://www.w3.org/1999/xlink" contentStyleType="text/css" data-diagram-type="SEQUENCE" height="1151px" preserveAspectRatio="none" style="width:1077px;height:1151px;background:#FFFFFF;" version="1.1" viewBox="0 0 1077 1151" width="1077px" zoomAndPan="magnify"><defs/><g><g><title>FastAPI .Main.</title><rect fill="#FFFFFF" height="700.2734" style="stroke:#181818;stroke-width:1;" width="10" x="229.272" y="170.6953"/></g><g><title>FastAPI .Main.</title><rect fill="#FFFFFF" height="117.6641" style="stroke:#181818;stroke-width:1;" width="10" x="229.272" y="935.2344"/></g><g><title>Processor</title><rect fill="#FFFFFF" height="536.6719" style="stroke:#181818;stroke-width:1;" width="10" x="590.5254" y="199.8281"/></g><g><title>MongoDB</title><rect fill="#FFFFFF" height="29.1328" style="stroke:#181818;stroke-width:1;" width="10" x="998.4785" y="244.0938"/></g><g><title>MongoDB</title><rect fill="#FFFFFF" height="29.1328" style="stroke:#181818;stroke-width:1;" width="10" x="998.4785" y="392.7578"/></g><g><title>MongoDB</title><rect fill="#FFFFFF" height="29.1328" style="stroke:#181818;stroke-width:1;" width="10" x="998.4785" y="554.0313"/></g><g><title>MongoDB</title><rect fill="#FFFFFF" height="29.1328" style="stroke:#181818;stroke-width:1;" width="10" x="998.4785" y="663.2344"/></g><g><title>MongoDB</title><rect fill="#FFFFFF" height="29.1328" style="stroke:#181818;stroke-width:1;" width="10" x="998.4785" y="979.5"/></g><rect fill="none" height="441.2734" style="stroke:#000000;stroke-width:1.5;" width="903.063" x="157.0928" y="288.2266"/><rect fill="none" height="265.8047" style="stroke:#000000;stroke-width:1.5;" width="883.063" x="167.0928" y="354.4922"/><rect fill="none" height="120.4688" style="stroke:#000000;stroke-width:1.5;" width="291.4512" x="10" y="743.5"/><g class="participant-lifeline" data-entity-uid="part1" data-qualified-name="Client" id="part1-lifeline"><g><title>Client</title><rect fill="#000000" fill-opacity="0.00000" height="989.6016" width="8" x="39.2651" y="81.2969"/><line style="stroke:#181818;stroke-width:0.5;stroke-dasharray:5,5;" x1="43" x2="43" y1="81.2969" y2="1070.8984"/></g></g><g class="participant-lifeline" data-entity-uid="part2" data-qualified-name="API" id="part2-lifeline"><g><title>FastAPI .Main.</title><rect fill="#000000" fill-opacity="0.00000" height="989.6016" width="8" x="230.272" y="81.2969"/><line style="stroke:#181818;stroke-width:0.5;stroke-dasharray:5,5;" x1="234.0928" x2="234.0928" y1="81.2969" y2="1070.8984"/></g></g><g class="participant-lifeline" data-entity-uid="part3" data-qualified-name="Processor" id="part3-lifeline"><g><title>Processor</title><rect fill="#000000" fill-opacity="0.00000" height="989.6016" width="8" x="591.5254" y="81.2969"/><line style="stroke:#181818;stroke-width:0.5;stroke-dasharray:5,5;" x1="594.5337" x2="594.5337" y1="81.2969" y2="1070.8984"/></g></g><g class="participant-lifeline" data-entity-uid="part4" data-qualified-name="DB" id="part4-lifeline"><g><title>MongoDB</title><rect fill="#000000" fill-opacity="0.00000" height="989.6016" width="8" x="999.4785" y="81.2969"/><line style="stroke:#181818;stroke-width:0.5;stroke-dasharray:5,5;" x1="1002.8013" x2="1002.8013" y1="81.2969" y2="1070.8984"/></g></g><g class="participant participant-head" data-entity-uid="part1" data-qualified-name="Client" id="part1-head"><text fill="#000000" font-family="sans-serif" font-size="14" lengthAdjust="spacing" textLength="40.5303" x="20" y="77.9951">Client</text><ellipse cx="43.2651" cy="13.5" fill="#E2E2F0" rx="8" ry="8" style="stroke:#181818;stroke-width:0.5;"/><path d="M43.2651,21.5 L43.2651,48.5 M30.2651,29.5 L56.2651,29.5 M43.2651,48.5 L30.2651,63.5 M43.2651,48.5 L56.2651,63.5" fill="none" style="stroke:#181818;stroke-width:0.5;"/></g><g class="participant participant-tail" data-entity-uid="part1" data-qualified-name="Client" id="part1-tail"><text fill="#000000" font-family="sans-serif" font-size="14" lengthAdjust="spacing" textLength="40.5303" x="20" y="1082.8936">Client</text><ellipse cx="43.2651" cy="1094.6953" fill="#E2E2F0" rx="8" ry="8" style="stroke:#181818;stroke-width:0.5;"/><path d="M43.2651,1102.6953 L43.2651,1129.6953 M30.2651,1110.6953 L56.2651,1110.6953 M43.2651,1129.6953 L30.2651,1144.6953 M43.2651,1129.6953 L56.2651,1144.6953" fill="none" style="stroke:#181818;stroke-width:0.5;"/></g><g class="participant participant-head" data-entity-uid="part2" data-qualified-name="API" id="part2-head"><rect fill="#E2E2F0" height="30.2969" rx="2.5" ry="2.5" style="stroke:#181818;stroke-width:0.5;" width="114.3584" x="177.0928" y="50"/><text fill="#000000" font-family="sans-serif" font-size="14" lengthAdjust="spacing" textLength="100.3584" x="184.0928" y="69.9951">FastAPI (Main)</text></g><g class="participant participant-tail" data-entity-uid="part2" data-qualified-name="API" id="part2-tail"><rect fill="#E2E2F0" height="30.2969" rx="2.5" ry="2.5" style="stroke:#181818;stroke-width:0.5;" width="114.3584" x="177.0928" y="1069.8984"/><text fill="#000000" font-family="sans-serif" font-size="14" lengthAdjust="spacing" textLength="100.3584" x="184.0928" y="1089.8936">FastAPI (Main)</text></g><g class="participant participant-head" data-entity-uid="part3" data-qualified-name="Processor" id="part3-head"><rect fill="#E2E2F0" height="30.2969" rx="2.5" ry="2.5" style="stroke:#181818;stroke-width:0.5;" width="81.9834" x="554.5337" y="50"/><text fill="#000000" font-family="sans-serif" font-size="14" lengthAdjust="spacing" textLength="67.9834" x="561.5337" y="69.9951">Processor</text></g><g class="participant participant-tail" data-entity-uid="part3" data-qualified-name="Processor" id="part3-tail"><rect fill="#E2E2F0" height="30.2969" rx="2.5" ry="2.5" style="stroke:#181818;stroke-width:0.5;" width="81.9834" x="554.5337" y="1069.8984"/><text fill="#000000" font-family="sans-serif" font-size="14" lengthAdjust="spacing" textLength="67.9834" x="561.5337" y="1089.8936">Processor</text></g><g class="participant participant-head" data-entity-uid="part4" data-qualified-name="DB" id="part4-head"><text fill="#000000" font-family="sans-serif" font-size="14" lengthAdjust="spacing" textLength="67.3545" x="966.8013" y="77.9951">MongoDB</text><path d="M985.4785,29 C985.4785,19 1003.4785,19 1003.4785,19 C1003.4785,19 1021.4785,19 1021.4785,29 L1021.4785,55 C1021.4785,65 1003.4785,65 1003.4785,65 C1003.4785,65 985.4785,65 985.4785,55 L985.4785,29" fill="#E2E2F0" style="stroke:#181818;stroke-width:0.5;"/><path d="M985.4785,29 C985.4785,39 1003.4785,39 1003.4785,39 C1003.4785,39 1021.4785,39 1021.4785,29" fill="none" style="stroke:#181818;stroke-width:0.5;"/></g><g class="participant participant-tail" data-entity-uid="part4" data-qualified-name="DB" id="part4-tail"><text fill="#000000" font-family="sans-serif" font-size="14" lengthAdjust="spacing" textLength="67.3545" x="966.8013" y="1082.8936">MongoDB</text><path d="M985.4785,1096.1953 C985.4785,1086.1953 1003.4785,1086.1953 1003.4785,1086.1953 C1003.4785,1086.1953 1021.4785,1086.1953 1021.4785,1096.1953 L1021.4785,1122.1953 C1021.4785,1132.1953 1003.4785,1132.1953 1003.4785,1132.1953 C1003.4785,1132.1953 985.4785,1132.1953 985.4785,1122.1953 L985.4785,1096.1953" fill="#E2E2F0" style="stroke:#181818;stroke-width:0.5;"/><path d="M985.4785,1096.1953 C985.4785,1106.1953 1003.4785,1106.1953 1003.4785,1106.1953 C1003.4785,1106.1953 1021.4785,1106.1953 1021.4785,1096.1953" fill="none" style="stroke:#181818;stroke-width:0.5;"/></g><g><title>FastAPI .Main.</title><rect fill="#FFFFFF" height="700.2734" style="stroke:#181818;stroke-width:1;" width="10" x="229.272" y="170.6953"/></g><g><title>FastAPI .Main.</title><rect fill="#FFFFFF" height="117.6641" style="stroke:#181818;stroke-width:1;" width="10" x="229.272" y="935.2344"/></g><g><title>Processor</title><rect fill="#FFFFFF" height="536.6719" style="stroke:#181818;stroke-width:1;" width="10" x="590.5254" y="199.8281"/></g><g><title>MongoDB</title><rect fill="#FFFFFF" height="29.1328" style="stroke:#181818;stroke-width:1;" width="10" x="998.4785" y="244.0938"/></g><g><title>MongoDB</title><rect fill="#FFFFFF" height="29.1328" style="stroke:#181818;stroke-width:1;" width="10" x="998.4785" y="392.7578"/></g><g><title>MongoDB</title><rect fill="#FFFFFF" height="29.1328" style="stroke:#181818;stroke-width:1;" width="10" x="998.4785" y="554.0313"/></g><g><title>MongoDB</title><rect fill="#FFFFFF" height="29.1328" style="stroke:#181818;stroke-width:1;" width="10" x="998.4785" y="663.2344"/></g><g><title>MongoDB</title><rect fill="#FFFFFF" height="29.1328" style="stroke:#181818;stroke-width:1;" width="10" x="998.4785" y="979.5"/></g><rect fill="#EEEEEE" height="3" style="stroke:#EEEEEE;stroke-width:1;" width="1070.1558" x="0" y="111.8633"/><line style="stroke:#000000;stroke-width:1;" x1="0" x2="1070.1558" y1="111.8633" y2="111.8633"/><line style="stroke:#000000;stroke-width:1;" x1="0" x2="1070.1558" y1="114.8633" y2="114.8633"/><rect fill="#EEEEEE" height="23.1328" style="stroke:#000000;stroke-width:2;" width="178.3408" x="445.9075" y="101.2969"/><text fill="#000000" font-family="sans-serif" font-size="13" font-weight="bold" lengthAdjust="spacing" textLength="159.8149" x="451.9075" y="117.3638">Ingest Outage Record</text><g class="message" data-entity-1="part1" data-entity-2="part2" id="msg1"><polygon fill="#181818" points="217.272,166.6953,227.272,170.6953,217.272,174.6953,221.272,170.6953" style="stroke:#181818;stroke-width:1;"/><line style="stroke:#181818;stroke-width:1;" x1="43.2651" x2="223.272" y1="170.6953" y2="170.6953"/><text fill="#000000" font-family="sans-serif" font-size="13" lengthAdjust="spacing" textLength="139.6104" x="50.2651" y="150.4966">POST /api/v1/outages</text><text fill="#000000" font-family="sans-serif" font-size="13" lengthAdjust="spacing" textLength="103.6572" x="50.2651" y="165.6294">(OutageRecord)</text></g><g class="message" data-entity-1="part2" data-entity-2="part3" id="msg2"><polygon fill="#181818" points="578.5254,195.8281,588.5254,199.8281,578.5254,203.8281,582.5254,199.8281" style="stroke:#181818;stroke-width:1;"/><line style="stroke:#181818;stroke-width:1;" x1="239.272" x2="584.5254" y1="199.8281" y2="199.8281"/><text fill="#000000" font-family="sans-serif" font-size="13" lengthAdjust="spacing" textLength="150.9663" x="246.272" y="194.7622">process_record(record)</text></g><g class="message" data-entity-1="part3" data-entity-2="part4" id="msg3"><polygon fill="#181818" points="986.4785,240.0938,996.4785,244.0938,986.4785,248.0938,990.4785,244.0938" style="stroke:#181818;stroke-width:1;"/><line style="stroke:#181818;stroke-width:1;" x1="600.5254" x2="992.4785" y1="244.0938" y2="244.0938"/><text fill="#000000" font-family="sans-serif" font-size="13" lengthAdjust="spacing" textLength="235.4917" x="607.5254" y="223.895">find_one(controller_id, outage_type)</text><text fill="#000000" font-family="sans-serif" font-size="13" lengthAdjust="spacing" textLength="161.0464" x="607.5254" y="239.0278">(Sort by end_time DESC)</text></g><g class="message" data-entity-1="part4" data-entity-2="part3" id="msg4"><polygon fill="#181818" points="611.5254,269.2266,601.5254,273.2266,611.5254,277.2266,607.5254,273.2266" style="stroke:#181818;stroke-width:1;"/><line style="stroke:#181818;stroke-width:1;stroke-dasharray:2,2;" x1="605.5254" x2="1002.4785" y1="273.2266" y2="273.2266"/><text fill="#000000" font-family="sans-serif" font-size="13" lengthAdjust="spacing" textLength="135.478" x="617.5254" y="268.1606">latest_event (or null)</text></g><path d="M157.0928,288.2266 L221.5356,288.2266 L221.5356,295.3594 L211.5356,305.3594 L157.0928,305.3594 L157.0928,288.2266" fill="#EEEEEE" style="stroke:#000000;stroke-width:1.5;"/><rect fill="none" height="441.2734" style="stroke:#000000;stroke-width:1.5;" width="903.063" x="157.0928" y="288.2266"/><text fill="#000000" font-family="sans-serif" font-size="13" font-weight="bold" lengthAdjust="spacing" textLength="19.4429" x="172.0928" y="301.2935">alt</text><text fill="#000000" font-family="sans-serif" font-size="11" font-weight="bold" lengthAdjust="spacing" textLength="126.9619" x="236.5356" y="300.437">[latest_event exists]</text><g class="message" data-entity-1="part3" data-entity-2="part3" id="msg5"><line style="stroke:#181818;stroke-width:1;" x1="600.5254" x2="642.5254" y1="326.4922" y2="326.4922"/><line style="stroke:#181818;stroke-width:1;" x1="642.5254" x2="642.5254" y1="326.4922" y2="339.4922"/><line style="stroke:#181818;stroke-width:1;" x1="601.5254" x2="642.5254" y1="339.4922" y2="339.4922"/><polygon fill="#181818" points="611.5254,335.4922,601.5254,339.4922,611.5254,343.4922,607.5254,339.4922" style="stroke:#181818;stroke-width:1;"/><text fill="#000000" font-family="sans-serif" font-size="13" lengthAdjust="spacing" textLength="373.9531" x="607.5254" y="321.4263">Calculate diff (record.timestamp - latest_event.end_time)</text></g><path d="M167.0928,354.4922 L231.5356,354.4922 L231.5356,361.625 L221.5356,371.625 L167.0928,371.625 L167.0928,354.4922" fill="#EEEEEE" style="stroke:#000000;stroke-width:1.5;"/><rect fill="none" height="265.8047" style="stroke:#000000;stroke-width:1.5;" width="883.063" x="167.0928" y="354.4922"/><text fill="#000000" font-family="sans-serif" font-size="13" font-weight="bold" lengthAdjust="spacing" textLength="19.4429" x="182.0928" y="367.5591">alt</text><text fill="#000000" font-family="sans-serif" font-size="11" font-weight="bold" lengthAdjust="spacing" textLength="216.6646" x="246.5356" y="366.7026">[0 &lt; diff &lt;= TOLERANCE_MINUTES]</text><g class="message" data-entity-1="part3" data-entity-2="part4" id="msg6"><polygon fill="#181818" points="986.4785,388.7578,996.4785,392.7578,986.4785,396.7578,990.4785,392.7578" style="stroke:#181818;stroke-width:1;"/><line style="stroke:#181818;stroke-width:1;" x1="600.5254" x2="992.4785" y1="392.7578" y2="392.7578"/><text fill="#000000" font-family="sans-serif" font-size="13" lengthAdjust="spacing" textLength="278.6431" x="607.5254" y="387.6919">update_one(_id, set end_time=timestamp)</text></g><g class="message" data-entity-1="part4" data-entity-2="part3" id="msg7"><polygon fill="#181818" points="611.5254,417.8906,601.5254,421.8906,611.5254,425.8906,607.5254,421.8906" style="stroke:#181818;stroke-width:1;"/><line style="stroke:#181818;stroke-width:1;stroke-dasharray:2,2;" x1="605.5254" x2="1002.4785" y1="421.8906" y2="421.8906"/><text fill="#000000" font-family="sans-serif" font-size="13" lengthAdjust="spacing" textLength="50.8511" x="617.5254" y="416.8247">success</text></g><g class="message" data-entity-1="part3" data-entity-2="part2" id="msg8"><polygon fill="#181818" points="250.272,447.0234,240.272,451.0234,250.272,455.0234,246.272,451.0234" style="stroke:#181818;stroke-width:1;"/><line style="stroke:#181818;stroke-width:1;stroke-dasharray:2,2;" x1="244.272" x2="589.5254" y1="451.0234" y2="451.0234"/><text fill="#000000" font-family="sans-serif" font-size="13" lengthAdjust="spacing" textLength="179.2578" x="256.272" y="445.9575">{"message": "Updated ..."}</text></g><line style="stroke:#000000;stroke-width:1;stroke-dasharray:2,2;" x1="167.0928" x2="1050.1558" y1="460.0234" y2="460.0234"/><text fill="#000000" font-family="sans-serif" font-size="11" font-weight="bold" lengthAdjust="spacing" textLength="136.2432" x="172.0928" y="470.2339">[diff &lt; 0 OR diff == 0]</text><g class="message" data-entity-1="part3" data-entity-2="part2" id="msg9"><polygon fill="#181818" points="250.272,506.0938,240.272,510.0938,250.272,514.0938,246.272,510.0938" style="stroke:#181818;stroke-width:1;"/><line style="stroke:#181818;stroke-width:1;stroke-dasharray:2,2;" x1="244.272" x2="589.5254" y1="510.0938" y2="510.0938"/><text fill="#000000" font-family="sans-serif" font-size="13" lengthAdjust="spacing" textLength="78.2603" x="256.272" y="489.895">409 Conflict</text><text fill="#000000" font-family="sans-serif" font-size="13" lengthAdjust="spacing" textLength="327.2534" x="256.272" y="505.0278">{"message": "Receiving older/duplicated record"}</text></g><line style="stroke:#000000;stroke-width:1;stroke-dasharray:2,2;" x1="167.0928" x2="1050.1558" y1="519.0938" y2="519.0938"/><text fill="#000000" font-family="sans-serif" font-size="11" font-weight="bold" lengthAdjust="spacing" textLength="184.873" x="172.0928" y="529.3042">[gap &gt; TOLERANCE_MINUTES]</text><g class="message" data-entity-1="part3" data-entity-2="part4" id="msg10"><polygon fill="#181818" points="986.4785,550.0313,996.4785,554.0313,986.4785,558.0313,990.4785,554.0313" style="stroke:#181818;stroke-width:1;"/><line style="stroke:#181818;stroke-width:1;" x1="600.5254" x2="992.4785" y1="554.0313" y2="554.0313"/><text fill="#000000" font-family="sans-serif" font-size="13" lengthAdjust="spacing" textLength="148.2939" x="607.5254" y="548.9653">insert_one(new_event)</text></g><g class="message" data-entity-1="part4" data-entity-2="part3" id="msg11"><polygon fill="#181818" points="611.5254,579.1641,601.5254,583.1641,611.5254,587.1641,607.5254,583.1641" style="stroke:#181818;stroke-width:1;"/><line style="stroke:#181818;stroke-width:1;stroke-dasharray:2,2;" x1="605.5254" x2="1002.4785" y1="583.1641" y2="583.1641"/><text fill="#000000" font-family="sans-serif" font-size="13" lengthAdjust="spacing" textLength="50.8511" x="617.5254" y="578.0981">success</text></g><g class="message" data-entity-1="part3" data-entity-2="part2" id="msg12"><polygon fill="#181818" points="250.272,608.2969,240.272,612.2969,250.272,616.2969,246.272,612.2969" style="stroke:#181818;stroke-width:1;"/><line style="stroke:#181818;stroke-width:1;stroke-dasharray:2,2;" x1="244.272" x2="589.5254" y1="612.2969" y2="612.2969"/><text fill="#000000" font-family="sans-serif" font-size="13" lengthAdjust="spacing" textLength="190.0044" x="256.272" y="607.231">{"message": "Processed ..."}</text></g><line style="stroke:#000000;stroke-width:1;stroke-dasharray:2,2;" x1="157.0928" x2="1060.1558" y1="628.2969" y2="628.2969"/><text fill="#000000" font-family="sans-serif" font-size="11" font-weight="bold" lengthAdjust="spacing" textLength="123.2935" x="162.0928" y="638.5073">[No previous event]</text><g class="message" data-entity-1="part3" data-entity-2="part4" id="msg13"><polygon fill="#181818" points="986.4785,659.2344,996.4785,663.2344,986.4785,667.2344,990.4785,663.2344" style="stroke:#181818;stroke-width:1;"/><line style="stroke:#181818;stroke-width:1;" x1="600.5254" x2="992.4785" y1="663.2344" y2="663.2344"/><text fill="#000000" font-family="sans-serif" font-size="13" lengthAdjust="spacing" textLength="148.2939" x="607.5254" y="658.1685">insert_one(new_event)</text></g><g class="message" data-entity-1="part4" data-entity-2="part3" id="msg14"><polygon fill="#181818" points="611.5254,688.3672,601.5254,692.3672,611.5254,696.3672,607.5254,692.3672" style="stroke:#181818;stroke-width:1;"/><line style="stroke:#181818;stroke-width:1;stroke-dasharray:2,2;" x1="605.5254" x2="1002.4785" y1="692.3672" y2="692.3672"/><text fill="#000000" font-family="sans-serif" font-size="13" lengthAdjust="spacing" textLength="50.8511" x="617.5254" y="687.3013">success</text></g><g class="message" data-entity-1="part3" data-entity-2="part2" id="msg15"><polygon fill="#181818" points="250.272,717.5,240.272,721.5,250.272,725.5,246.272,721.5" style="stroke:#181818;stroke-width:1;"/><line style="stroke:#181818;stroke-width:1;stroke-dasharray:2,2;" x1="244.272" x2="589.5254" y1="721.5" y2="721.5"/><text fill="#000000" font-family="sans-serif" font-size="13" lengthAdjust="spacing" textLength="190.0044" x="256.272" y="716.4341">{"message": "Processed ..."}</text></g><path d="M10,743.5 L74.4429,743.5 L74.4429,750.6328 L64.4429,760.6328 L10,760.6328 L10,743.5" fill="#EEEEEE" style="stroke:#000000;stroke-width:1.5;"/><rect fill="none" height="120.4688" style="stroke:#000000;stroke-width:1.5;" width="291.4512" x="10" y="743.5"/><text fill="#000000" font-family="sans-serif" font-size="13" font-weight="bold" lengthAdjust="spacing" textLength="19.4429" x="25" y="756.5669">alt</text><text fill="#000000" font-family="sans-serif" font-size="11" font-weight="bold" lengthAdjust="spacing" textLength="59.4043" x="89.4429" y="755.7104">[Success]</text><g class="message" data-entity-1="part2" data-entity-2="part1" id="msg16"><polygon fill="#181818" points="54.2651,792.8984,44.2651,796.8984,54.2651,800.8984,50.2651,796.8984" style="stroke:#181818;stroke-width:1;"/><line style="stroke:#181818;stroke-width:1;stroke-dasharray:2,2;" x1="48.2651" x2="228.272" y1="796.8984" y2="796.8984"/><text fill="#000000" font-family="sans-serif" font-size="13" lengthAdjust="spacing" textLength="89.7305" x="60.2651" y="776.6997">202 Accepted</text><text fill="#000000" font-family="sans-serif" font-size="13" lengthAdjust="spacing" textLength="93.1519" x="60.2651" y="791.8325">JSON Message</text></g><line style="stroke:#000000;stroke-width:1;stroke-dasharray:2,2;" x1="10" x2="301.4512" y1="805.8984" y2="805.8984"/><text fill="#000000" font-family="sans-serif" font-size="11" font-weight="bold" lengthAdjust="spacing" textLength="57.6211" x="15" y="816.1089">[Conflict]</text><g class="message" data-entity-1="part2" data-entity-2="part1" id="msg17"><polygon fill="#181818" points="54.2651,851.9688,44.2651,855.9688,54.2651,859.9688,50.2651,855.9688" style="stroke:#181818;stroke-width:1;"/><line style="stroke:#181818;stroke-width:1;stroke-dasharray:2,2;" x1="48.2651" x2="228.272" y1="855.9688" y2="855.9688"/><text fill="#000000" font-family="sans-serif" font-size="13" lengthAdjust="spacing" textLength="78.2603" x="60.2651" y="835.77">409 Conflict</text><text fill="#000000" font-family="sans-serif" font-size="13" lengthAdjust="spacing" textLength="93.1519" x="60.2651" y="850.9028">JSON Message</text></g><rect fill="#EEEEEE" height="3" style="stroke:#EEEEEE;stroke-width:1;" width="1070.1558" x="0" y="891.5352"/><line style="stroke:#000000;stroke-width:1;" x1="0" x2="1070.1558" y1="891.5352" y2="891.5352"/><line style="stroke:#000000;stroke-width:1;" x1="0" x2="1070.1558" y1="894.5352" y2="894.5352"/><rect fill="#EEEEEE" height="23.1328" style="stroke:#000000;stroke-width:2;" width="174.3799" x="447.8879" y="880.9688"/><text fill="#000000" font-family="sans-serif" font-size="13" font-weight="bold" lengthAdjust="spacing" textLength="155.854" x="453.8879" y="897.0356">Query Outage Events</text><g class="message" data-entity-1="part1" data-entity-2="part2" id="msg18"><polygon fill="#181818" points="217.272,931.2344,227.272,935.2344,217.272,939.2344,221.272,935.2344" style="stroke:#181818;stroke-width:1;"/><line style="stroke:#181818;stroke-width:1;" x1="43.2651" x2="223.272" y1="935.2344" y2="935.2344"/><text fill="#000000" font-family="sans-serif" font-size="13" lengthAdjust="spacing" textLength="167.0068" x="50.2651" y="930.1685">GET /api/v1/events?filters</text></g><g class="message" data-entity-1="part2" data-entity-2="part4" id="msg19"><polygon fill="#181818" points="986.4785,975.5,996.4785,979.5,986.4785,983.5,990.4785,979.5" style="stroke:#181818;stroke-width:1;"/><line style="stroke:#181818;stroke-width:1;" x1="239.272" x2="992.4785" y1="979.5" y2="979.5"/><text fill="#000000" font-family="sans-serif" font-size="13" lengthAdjust="spacing" textLength="72.3506" x="246.272" y="959.3013">find(query)</text><text fill="#000000" font-family="sans-serif" font-size="13" lengthAdjust="spacing" textLength="204.7373" x="246.272" y="974.4341">(Filter by time, type, controller)</text></g><g class="message" data-entity-1="part4" data-entity-2="part2" id="msg20"><polygon fill="#181818" points="250.272,1004.6328,240.272,1008.6328,250.272,1012.6328,246.272,1008.6328" style="stroke:#181818;stroke-width:1;"/><line style="stroke:#181818;stroke-width:1;stroke-dasharray:2,2;" x1="244.272" x2="1002.4785" y1="1008.6328" y2="1008.6328"/><text fill="#000000" font-family="sans-serif" font-size="13" lengthAdjust="spacing" textLength="117.895" x="256.272" y="1003.5669">List[OutageEvent]</text></g><g class="message" data-entity-1="part2" data-entity-2="part1" id="msg21"><polygon fill="#181818" points="54.2651,1048.8984,44.2651,1052.8984,54.2651,1056.8984,50.2651,1052.8984" style="stroke:#181818;stroke-width:1;"/><line style="stroke:#181818;stroke-width:1;stroke-dasharray:2,2;" x1="48.2651" x2="233.272" y1="1052.8984" y2="1052.8984"/><text fill="#000000" font-family="sans-serif" font-size="13" lengthAdjust="spacing" textLength="47.7026" x="60.2651" y="1032.6997">200 OK</text><text fill="#000000" font-family="sans-serif" font-size="13" lengthAdjust="spacing" textLength="69.0435" x="60.2651" y="1047.8325">(JSON List)</text></g><?plantuml-src nLJRZjem47ttLupoH2HkNVMbY6p5RIlQvL9Wdqg5lCc0B6Njr7Reegh_NbyW981MsgVc8NBYcJbdZiU7nbf86AGCkIOPbPh5BADSG_10bUxDnr2RKCR30AW2yrcDcKiHer92kktYYoHKqsUg48A9u3inxBlzOP-GA88ntw7ICCirtI4iC1OoWIWYdWGqxYrE1-QpvGfQD6Ej_OUMSC5gpMi-pMU5XCQQxQb6HurOkYQzuD61p2ytqiNNv6NQcJ8fbhR4iD-1BUF9Hd2inO9hAT8KvOObTV1SDlgGOMW8BONKy7m0DD6QlI0CHyj12S9qFUn3eyehDJjARt1lEwuPJ9wdQKWIBASHckfg9BuofHK1yrJebYeFQ1hdDWaIjjt2iUMcPQOqVScWKIdPFD4ENLNtih1jwFe2tGXMiyVHeZSTZ3QJyVHfDLgwg2iILhCyCqUFJZMdbK9T21CL7CAYGBdTqxzhjLGUssKHKPNf1fdJ3Fq93A8ofnLq87Xot19eDfl1NvU5gJhAr3KDpnP-RKQq_LRHZ-rFC11ycx9Ohta5membiZtZEn1fWhALv9c9SgZ-7Ch0Evh1_Nl4PLoXr4vSZh_z-VqVAO_xLJ5vGbnVKs6k7UwPo1KuZkITtLmoUhkBwmxUozuoBr-zaYdOgx0iWJc7CKMzLtNWhdq7FRETcIDUyw_BsHGc7iXhSPgJcydLGQec6qebHixTp5n-pr4UJiuviegf6yxvPNGsJYUh-hnbgKQfRllboUnglsnvwsaFBjowchspTR1ULuUp3zwqDuVzQ0pgXoVe-FsyzBHh1StD-sOmNVysFRpe_1y0?></g></svg>