<?plantuml 1.2026.0?><svg xmlns="http://www.w3.org/2000/svg" xmlns:xlink="http://www.w3.org/1999/xlink" contentStyleType="text/css" data-diagram-type="CLASS" height="331px" preserveAspectRatio="none" style="width:1099px;height:331px;background:#FFFFFF;" version="1.1" viewBox="0 0 1099 331" width="1099px" zoomAndPan="magnify"><defs/><g><!--cluster Docker Host--><g class="cluster" data-qualified-name="Docker Host" data-source-line="3" id="ent0002"><polygon fill="none" points="16,154.79,26,144.79,555,144.79,555,304.09,545,314.09,16,314.09,16,154.79" style="stroke:#181818;stroke-width:1;"/><line style="stroke:#181818;stroke-width:1;" x1="545" x2="555" y1="154.79" y2="144.79"/><line style="stroke:#181818;stroke-width:1;" x1="16" x2="545" y1="154.79" y2="154.79"/><line style="stroke:#181818;stroke-width:1;" x1="545" x2="545" y1="154.79" y2="314.09"/><text fill="#000000" font-family="sans-serif" font-size="14" font-weight="bold" lengthAdjust="spacing" textLength="96.4824" x="233.2588" y="170.7851">Docker Host</text></g><!--cluster Docker Network: app-network--><g class="cluster" data-qualified-name="Docker Host.Docker Network. app-network" data-source-line="4" id="ent0003"><path d="M42.5,192.79 L280.9873,192.79 A3.75,3.75 0 0 1 283.4873,195.29 L290.4873,215.0869 L528.5,215.0869 A2.5,2.5 0 0 1 531,217.5869 L531,287.59 A2.5,2.5 0 0 1 528.5,290.09 L42.5,290.09 A2.5,2.5 0 0 1 40,287.59 L40,195.29 A2.5,2.5 0 0 1 42.5,192.79" fill="none" style="stroke:#000000;stroke-width:1.5;"/><line style="stroke:#000000;stroke-width:1.5;" x1="40" x2="290.4873" y1="215.0869" y2="215.0869"/><text fill="#000000" font-family="sans-serif" font-size="14" font-weight="bold" lengthAdjust="spacing" textLength="237.4873" x="44" y="207.7851">Docker Network: app-network</text></g><!--entity Server--><g class="entity" data-qualified-name="Docker Host.Docker Network. app-network.Server" data-source-line="5" id="ent0004"><rect fill="#F1F1F1" height="46.2969" rx="2.5" ry="2.5" style="stroke:#181818;stroke-width:0.5;" width="152.8477" x="55.58" y="227.79"/><rect fill="#F1F1F1" height="10" style="stroke:#181818;stroke-width:0.5;" width="15" x="188.4277" y="232.79"/><rect fill="#F1F1F1" height="2" style="stroke:#181818;stroke-width:0.5;" width="4" x="186.4277" y="234.79"/><rect fill="#F1F1F1" height="2" style="stroke:#181818;stroke-width:0.5;" width="4" x="186.4277" y="238.79"/><text fill="#000000" font-family="sans-serif" font-size="14" lengthAdjust="spacing" textLength="112.8477" x="70.58" y="260.7851">Server (FastAPI)</text></g><!--entity Mongo--><g class="entity" data-qualified-name="Docker Host.Docker Network. app-network.Mongo" data-source-line="6" id="ent0005"><path d="M427.32,238.29 C427.32,228.29 470.9972,228.29 470.9972,228.29 C470.9972,228.29 514.6745,228.29 514.6745,238.29 L514.6745,263.5869 C514.6745,273.5869 470.9972,273.5869 470.9972,273.5869 C470.9972,273.5869 427.32,273.5869 427.32,263.5869 L427.32,238.29" fill="#F1F1F1" style="stroke:#181818;stroke-width:0.5;"/><path d="M427.32,238.29 C427.32,248.29 470.9972,248.29 470.9972,248.29 C470.9972,248.29 514.6745,248.29 514.6745,238.29" fill="none" style="stroke:#181818;stroke-width:0.5;"/><text fill="#000000" font-family="sans-serif" font-size="14" lengthAdjust="spacing" textLength="67.3545" x="437.32" y="265.2851">MongoDB</text></g><!--entity Client--><g class="entity" data-qualified-name="Client" data-source-line="10" id="ent0006"><ellipse cx="300.9951" cy="14" fill="#F1F1F1" rx="8" ry="8" style="stroke:#181818;stroke-width:0.5;"/><path d="M300.9951,22 L300.9951,49 M287.9951,30 L313.9951,30 M300.9951,49 L287.9951,64 M300.9951,49 L313.9951,64" fill="none" style="stroke:#181818;stroke-width:0.5;"/><text fill="#000000" font-family="sans-serif" font-size="14" lengthAdjust="spacing" textLength="40.5303" x="280.73" y="78.4951">Client</text></g><g class="entity" data-qualified-name="GMN10" data-source-line="18" id="ent0011"><path d="M570.84,230.81 L570.84,271.0756 L901.1676,271.0756 L901.1676,240.81 L891.1676,230.81 L570.84,230.81" fill="#FEFFDD" style="stroke:#181818;stroke-width:0.5;"/><path d="M891.1676,230.81 L891.1676,240.81 L901.1676,240.81 L891.1676,230.81" fill="#FEFFDD" style="stroke:#181818;stroke-width:1;"/><text fill="#000000" font-family="sans-serif" font-size="13" lengthAdjust="spacing" textLength="105.2949" x="576.84" y="247.8769">Port: 8000:8000</text><text fill="#000000" font-family="sans-serif" font-size="13" lengthAdjust="spacing" textLength="309.3276" x="576.84" y="263.0097">Env: MONGO_URL=mongodb://mongodb:27017</text></g><g class="entity" data-qualified-name="GMN13" data-source-line="23" id="ent0014"><path d="M935.89,230.81 L935.89,271.0756 L1092.1014,271.0756 L1092.1014,240.81 L1082.1014,230.81 L935.89,230.81" fill="#FEFFDD" style="stroke:#181818;stroke-width:0.5;"/><path d="M1082.1014,230.81 L1082.1014,240.81 L1092.1014,240.81 L1082.1014,230.81" fill="#FEFFDD" style="stroke:#181818;stroke-width:1;"/><text fill="#000000" font-family="sans-serif" font-size="13" lengthAdjust="spacing" textLength="121.8369" x="941.89" y="247.8769">Port: 27017:27017</text><text fill="#000000" font-family="sans-serif" font-size="13" lengthAdjust="spacing" textLength="135.2114" x="941.89" y="263.0097">Image: mongo:latest</text></g><!--link Client to Server--><g class="link" data-entity-1="ent0006" data-entity-2="ent0004" data-link-type="dependency" data-source-line="12" id="lnk7"><path codeLine="12" d="M280.28,69.82 C247.05,110.18 186.1727,184.1272 154.3727,222.7672" fill="none" id="Client-to-Server" style="stroke:#181818;stroke-width:1;"/><polygon fill="#181818" points="150.56,227.4,159.3676,222.9926,153.7373,223.5393,153.1905,217.9089,150.56,227.4" style="stroke:#181818;stroke-width:1;"/><text fill="#000000" font-family="sans-serif" font-size="13" lengthAdjust="spacing" textLength="70.9604" x="243" y="124.8569">HTTP:8000</text></g><!--link Client to Mongo--><g class="link" data-entity-1="ent0006" data-entity-2="ent0005" data-link-type="dependency" data-source-line="13" id="lnk8"><path codeLine="13" d="M321.51,69.41 C354.98,109.83 416.9838,184.7083 448.9238,223.2883" fill="none" id="Client-to-Mongo" style="stroke:#181818;stroke-width:1;stroke-dasharray:7,7;"/><polygon fill="#181818" points="452.75,227.91,450.0918,218.4267,449.5615,224.0586,443.9295,223.5283,452.75,227.91" style="stroke:#181818;stroke-width:1;"/><text fill="#000000" font-family="sans-serif" font-size="13" lengthAdjust="spacing" textLength="229.3535" x="366" y="124.8569">TCP:27017 (Optional direct access)</text></g><!--link Server to Mongo--><g class="link" data-entity-1="ent0004" data-entity-2="ent0005" data-link-type="dependency" data-source-line="15" id="lnk9"><path codeLine="15" d="M208.5,250.94 C275.87,250.94 365.64,250.94 420.94,250.94" fill="none" id="Server-to-Mongo" style="stroke:#181818;stroke-width:1;"/><polygon fill="#181818" points="426.94,250.94,417.94,246.94,421.94,250.94,417.94,254.94,426.94,250.94" style="stroke:#181818;stroke-width:1;"/><text fill="#000000" font-family="sans-serif" font-size="13" lengthAdjust="spacing" textLength="70.5923" x="282.577" y="229.0069">TCP:27017</text><text fill="#000000" font-family="sans-serif" font-size="13" lengthAdjust="spacing" textLength="182.0063" x="226.87" y="244.1397">mongodb://mongodb:27017</text></g><!--link Server to GMN10--><g class="link" data-entity-1="ent0004" data-entity-2="ent0011" data-link-type="association" data-source-line="18" id="lnk12"><path d="M159.77,227.53 C222.08,177.92 378.18,69.87 513.5,109.29 C595.49,133.18 676.11,197.44 713.84,230.57" fill="none" id="Server-GMN10" style="stroke:#181818;stroke-width:1;stroke-dasharray:7,7;"/></g><!--link Mongo to GMN13--><g class="link" data-entity-1="ent0005" data-entity-2="ent0014" data-link-type="association" data-source-line="23" id="lnk15"><path d="M479.19,228.05 C492.48,194.8 522.23,134.37 570.5,109.29 C635.77,75.38 835.26,77.31 901.5,109.29 C953.96,134.62 989.46,197.62 1005.04,230.39" fill="none" id="Mongo-GMN13" style="stroke:#181818;stroke-width:1;stroke-dasharray:7,7;"/></g><?plantuml-src TP5DIyD048Rl-ok6dDf3skYbic11MxK5smGRRu9CDsiCINR2xj0AqlzkFbiGdSlEpllEm-mi5WKTo-mhCwaGXX8Dtf9KhYsioB47tmBgg53bc5wqhUOZsLm2LfLlkilWRK9HMP7HXi7RQNkeEqQFwFWkMeyzG0TTyMnFa76FhkPloAIql6zDRTvwJk8a12ec2uiYgx52T2Vu_ho7WOHL74Vo9WY2GPrCvXsb5kD59AzdmTKCHc756Hai8CciLWoeb7PkB4HFyl_eUZDbKqhsSZeTibPejiOQR9P-Cj37vMaHMPRGZDFD1F1W3X8suVOfV7zzURxz3wXD0WtpDtdOHmTklNq7mBgilqT22v85idPyvlm0?></g></svg>